<svg xmlns="http://www.w3.org/2000/svg" viewBox="0 0 500 500"><circle style="fill:#ed1f26;stroke:#000;stroke-width:5px" cx="250" cy="250" r="196.903" transform="matrix(1.023371, 0, 0, 1.014382, -5.842745, -3.595501)"/><circle style="stroke:#000;stroke-width:5px;fill:#e8e842" cx="250" cy="250" r="154.779"/><rect width="58.277" height="327.083" x="254.172" y="87.812" style="fill:#ed1f26"/><rect width="58.277" height="327.083" x="133.109" y="65" transform="matrix(0, 1, -1, 0, 482.825165, 60.63023)" style="fill:#ed1f26"/><rect width="84.44" height="4" x="312.373" y="193.456"/><rect width="90.61" height="4.281" x="312.452" y="251.982"/><rect width="157.37" height="4.281" x="96.789" y="251.993"/><rect width="145.777" height="4.281" x="108.363" y="189.391"/><rect width="4" height="100.138" x="250.242" y="92.869"/><rect width="4" height="85.285" x="312.348" y="109.665"/><rect width="4" height="147.704" x="250.203" y="255.827"/><rect width="4" height="133.589" x="312.489" y="255.998"/><ellipse style="fill:#ed1f26;stroke:#000;stroke-width:4px" cx="206.765" cy="320.155" rx="58.617" ry="43.809"/><ellipse style="stroke:#000;stroke-width:4px;fill:#e8e842" cx="210.37" cy="319.634" rx="29.823" ry="20.439"/><rect width="15.702" height="72.395" x="254.16" y="287.547" style="fill:#ed1f26"/><rect width="1.157" height=".207" x="274.16" y="341.926" style="fill:#d8d8d8"/><path id="path3" d="M 492.596 242.011 L 471.92 229.23 C 471.778 227.219 471.543 225.212 471.356 223.214 L 489.072 206.663 C 490.904 204.981 491.703 202.49 491.232 200.079 C 490.716 197.66 489.025 195.668 486.723 194.807 L 464.07 186.323 C 463.46 184.361 462.896 182.411 462.286 180.469 L 476.432 160.817 C 477.888 158.82 478.169 156.221 477.228 153.941 C 476.29 151.671 474.222 150.046 471.778 149.646 L 447.857 145.754 C 446.966 143.942 445.98 142.156 444.992 140.383 L 455.048 118.32 C 456.082 116.073 455.894 113.462 454.484 111.423 C 453.121 109.374 450.82 108.175 448.329 108.267 L 424.079 109.114 C 422.811 107.544 421.542 105.989 420.226 104.463 L 425.819 80.814 C 426.384 78.412 425.677 75.9 423.938 74.155 C 422.2 72.417 419.662 71.696 417.267 72.263 L 393.629 77.837 C 392.076 76.538 390.526 75.255 388.975 74.002 L 389.821 49.724 C 389.915 47.266 388.694 44.93 386.672 43.568 C 384.604 42.196 382.022 41.988 379.766 43.007 L 357.707 53.064 C 355.925 52.086 354.139 51.12 352.335 50.185 L 348.436 26.259 C 348.038 23.834 346.414 21.776 344.139 20.835 C 341.869 19.891 339.266 20.198 337.269 21.634 L 317.602 35.786 C 315.665 35.169 313.72 34.577 311.756 34.014 L 303.274 11.325 C 302.414 9.011 300.421 7.316 298.001 6.836 C 295.584 6.362 293.099 7.166 291.422 8.961 L 274.871 26.721 C 272.873 26.499 270.862 26.297 268.855 26.133 L 256.074 5.478 C 254.78 3.388 252.493 2.114 250.029 2.114 C 247.568 2.114 245.279 3.388 243.99 5.478 L 231.209 26.133 C 229.197 26.297 227.188 26.499 225.189 26.721 L 208.634 8.961 C 206.956 7.166 204.464 6.362 202.054 6.836 C 199.634 7.32 197.641 9.011 196.78 11.325 L 188.297 34.014 C 186.335 34.577 184.389 35.174 182.447 35.786 L 162.785 21.634 C 160.79 20.192 158.185 19.888 155.911 20.835 C 153.64 21.776 152.011 23.834 151.616 26.259 L 147.715 50.185 C 145.911 51.12 144.124 52.082 142.343 53.064 L 120.285 43.007 C 118.042 41.984 115.431 42.196 113.391 43.568 C 111.342 44.93 110.144 47.266 110.239 49.724 L 111.083 74.002 C 109.514 75.255 107.958 76.538 106.423 77.837 L 82.779 72.263 C 80.378 71.703 77.86 72.417 76.121 74.155 C 74.372 75.9 73.663 78.412 74.227 80.814 L 79.796 104.463 C 78.502 105.993 77.224 107.544 75.97 109.114 L 51.693 108.267 C 49.245 108.198 46.904 109.374 45.539 111.423 C 44.165 113.462 43.958 116.073 44.978 118.32 L 55.034 140.383 C 54.056 142.156 53.088 143.942 52.153 145.754 L 28.233 149.646 C 25.805 150.041 23.756 151.666 22.81 153.941 C 21.869 156.221 22.177 158.82 23.609 160.817 L 37.761 180.469 C 37.145 182.411 36.548 184.361 35.983 186.323 L 13.295 194.807 C 10.992 195.668 9.295 197.66 8.817 200.079 C 8.336 202.494 9.141 204.981 10.94 206.663 L 28.69 223.214 C 28.469 225.212 28.271 227.222 28.103 229.23 L 7.452 242.011 C 5.363 243.303 4.089 245.588 4.089 248.055 C 4.089 250.523 5.363 252.805 7.452 254.093 L 28.103 266.876 C 28.271 268.887 28.469 270.893 28.69 272.89 L 10.94 289.448 C 9.141 291.124 8.336 293.616 8.817 296.027 C 9.295 298.446 10.992 300.434 13.295 301.298 L 35.983 309.781 C 36.548 311.746 37.145 313.695 37.761 315.637 L 23.609 335.295 C 22.172 337.296 21.866 339.894 22.81 342.164 C 23.756 344.442 25.809 346.069 28.24 346.461 L 52.153 350.352 C 53.088 352.165 54.048 353.951 55.034 355.731 L 44.978 377.785 C 43.953 380.003 44.165 382.635 45.539 384.703 C 46.909 386.724 49.245 387.946 51.693 387.852 L 75.962 387.005 C 77.224 388.556 78.499 390.107 79.796 391.658 L 74.227 415.296 C 73.663 417.692 74.372 420.183 76.121 421.922 C 77.854 423.709 80.378 424.412 82.779 423.849 L 106.423 418.257 C 107.958 419.573 109.514 420.842 111.083 422.11 L 110.239 446.358 C 110.144 448.85 111.342 451.151 113.391 452.515 C 115.431 453.878 118.042 454.113 120.285 453.079 L 142.343 443.022 C 144.121 444.01 145.906 444.996 147.715 445.889 L 151.616 469.809 C 152.011 472.252 153.637 474.32 155.911 475.259 C 158.18 476.2 160.79 475.87 162.785 474.46 L 182.439 460.318 C 184.379 460.928 186.331 461.491 188.295 462.054 L 196.776 484.752 C 197.637 487.056 199.628 488.747 202.049 489.217 C 204.464 489.733 206.951 488.934 208.629 487.102 L 225.184 469.337 C 227.181 469.573 229.193 469.761 231.204 469.95 L 243.985 490.627 C 245.274 492.694 247.563 493.963 250.024 493.963 C 252.487 493.963 254.777 492.694 256.068 490.627 L 268.851 469.95 C 270.862 469.761 272.868 469.573 274.865 469.337 L 291.417 487.102 C 293.094 488.934 295.584 489.733 297.995 489.217 C 300.416 488.747 302.409 487.056 303.268 484.752 L 311.751 462.054 C 313.715 461.491 315.665 460.928 317.607 460.318 L 337.264 474.46 C 339.26 475.87 341.865 476.2 344.135 475.259 C 346.409 474.32 348.036 472.252 348.43 469.809 L 352.33 445.889 C 354.135 444.996 355.92 444.01 357.701 443.022 L 379.761 453.079 C 382.022 454.113 384.604 453.878 386.672 452.515 C 388.694 451.151 389.915 448.85 389.821 446.358 L 388.975 422.11 C 390.526 420.842 392.076 419.573 393.629 418.257 L 417.267 423.849 C 419.662 424.412 422.2 423.709 423.89 421.922 C 425.677 420.183 426.384 417.692 425.819 415.296 L 420.226 391.658 C 421.542 390.107 422.811 388.556 424.079 387.005 L 448.329 387.852 C 450.773 387.946 453.121 386.724 454.484 384.703 C 455.848 382.635 456.082 380.003 455.048 377.785 L 444.992 355.731 C 445.98 353.951 446.966 352.165 447.857 350.352 L 471.778 346.461 C 474.222 346.069 476.29 344.442 477.228 342.164 C 478.169 339.894 477.84 337.296 476.432 335.295 L 462.286 315.637 C 462.896 313.695 463.46 311.746 464.023 309.781 L 486.723 301.298 C 489.025 300.434 490.716 298.446 491.186 296.027 C 491.703 293.61 490.904 291.124 489.072 289.448 L 471.356 272.89 C 471.543 270.893 471.731 268.881 471.92 266.876 L 492.596 254.093 C 494.665 252.805 495.933 250.518 495.933 248.055 C 495.933 245.593 494.665 243.303 492.596 242.011 Z M 354.379 413.323 C 346.493 411.632 341.478 403.829 343.171 395.934 C 344.857 388.04 352.627 383.011 360.507 384.703 C 368.393 386.393 373.416 394.196 371.725 402.092 C 370.033 409.986 362.26 415.015 354.379 413.323 Z M 216.663 69.728 L 239.156 93.325 C 244.239 98.649 252.661 98.848 257.981 93.757 L 283.145 69.685 C 335.876 79.502 380.522 112.328 406.269 157.362 L 389.022 196.272 C 386.062 203.006 389.068 210.883 395.79 213.866 L 428.967 228.599 C 435.592 288.56 409.229 341.642 378.262 372.494 L 347.363 365.854 C 340.168 364.313 333.09 368.89 331.549 376.101 L 324.219 410.314 C 301.597 420.56 276.474 426.293 250.016 426.293 C 222.954 426.293 197.285 420.276 174.257 409.609 L 166.931 375.379 C 165.389 368.18 158.312 363.593 151.122 365.139 L 120.919 371.625 C 89.124 338.184 65.58 290.435 71.225 227.148 L 102.685 213.167 C 109.406 210.182 112.443 202.307 109.459 195.573 L 93.103 158.57 C 121.455 108.502 168.618 78.907 216.663 69.728 Z M 144.106 412.572 C 136.22 414.308 128.457 409.281 126.761 401.385 C 125.074 393.444 130.087 385.691 137.973 383.999 C 145.859 382.307 153.627 387.334 155.318 395.23 C 157.006 403.125 151.987 410.879 144.106 412.572 Z M 88.356 186.532 C 91.629 193.913 88.301 202.565 80.928 205.831 C 73.553 209.108 64.926 205.775 61.656 198.388 C 58.384 191.001 61.712 182.364 69.084 179.087 C 76.464 175.816 85.085 179.145 88.356 186.532 Z M 239.165 49.658 C 244.992 44.075 254.236 44.294 259.813 50.132 C 265.382 55.983 265.171 65.237 259.331 70.815 C 253.502 76.396 244.259 76.181 238.68 70.334 C 233.116 64.493 233.329 55.24 239.165 49.658 Z M 410.122 187.24 C 413.411 179.858 422.012 176.526 429.39 179.802 C 436.767 183.072 440.105 191.72 436.815 199.101 C 433.573 206.488 424.925 209.821 417.547 206.546 C 410.17 203.275 406.879 194.632 410.122 187.24 Z" style="fill:#3b568d;stroke:#000;stroke-width:4px"/></svg>